# xmcd
#
# Track frame offsets: 
#        150
#        16880
#        42686
#        55319
#        73324
#        90235
#        110169
#        126981
#        150700
#        166657
#
# Disc length: 2414 seconds
#
# Revision: 0
# Processed by: cddbd v1.5.2PL0 Copyright (c) Steve Scherf et al.
# Submitted via: ExactAudioCopy v0.95a5
#
DISCID=86096c0a
DTITLE=NEAL BLACK - Neal Black and the Healers
DYEAR=1991
DGENRE=Blues
TTITLE0=I'm Gonna Cry
TTITLE1=I Don't Get the Blues
TTITLE2=Steppin'Out
TTITLE3=A Thousand Yesterdays
TTITLE4=Out Of the Hole
TTITLE5=Lost Winthout You
TTITLE6=Pink Chainsaw Boogie
TTITLE7=Bridge In Tennessee
TTITLE8=Hell On the Highway
TTITLE9=Somebody Call Mama
EXTD=
EXTT0=
EXTT1=
EXTT2=
EXTT3=
EXTT4=
EXTT5=
EXTT6=
EXTT7=
EXTT8=
EXTT9=
PLAYORDER=
